# xmcd
#
# Track frame offsets: 
#        150
#        17010
#        36907
#        58079
#        78403
#        94844
#        116624
#        135848
#        157938
#        174884
#        194993
#        216841
#        232996
#
# Disc length: 3411 seconds
#
# Revision: 1
# Processed by: cddbd v1.5.2PL0 Copyright (c) Steve Scherf et al.
# Submitted via: ExactAudioCopy v1.0b2
#
DISCID=a60d510d
DTITLE=Secret Garden - Inside I'm Singing
DYEAR=2007
DGENRE=New Age
TTITLE0=Anne Takle - Nocturne
TTITLE1=Peter Joback - Thank You
TTITLE2=Elaine Paige - The Things You Are to Me
TTITLE3=Tommy Korberg - If Came the Hour
TTITLE4=Theme From the Mermaid Chair
TTITLE5=Tracey Campbell - Sometimes a Prayer Will Do
TTITLE6=Steinar Albrigtsen - Song for a Stormy Night
TTITLE7=Barbra Streisand - I've Dreamed of You
TTITLE8=Peter Corry - Did I Not Love You
TTITLE9=Niamh Kavanagh - Simply You
TTITLE10=Espen Grjotheim - My Land
TTITLE11=Sortie
TTITLE12=Brian Kennedy - You Raise Me Up
EXTD=YEAR: 2007
EXTT0=
EXTT1=
EXTT2=
EXTT3=
EXTT4=
EXTT5=
EXTT6=
EXTT7=
EXTT8=
EXTT9=
EXTT10=
EXTT11=
EXTT12=
PLAYORDER=
